<?xml version="1.0" encoding="UTF-8" standalone="no"?>
<!DOCTYPE svg PUBLIC "-//W3C//DTD SVG 1.1//EN"
 "http://www.w3.org/Graphics/SVG/1.1/DTD/svg11.dtd">
<!-- Generated by graphviz version 2.40.1 (20161225.0304)
 -->
<!-- Title: gocallvis Pages: 1 -->
<svg width="1166pt" height="697pt"
 viewBox="0.00 0.00 1166.20 697.10" xmlns="http://www.w3.org/2000/svg" xmlns:xlink="http://www.w3.org/1999/xlink">
<g id="graph0" class="graph" transform="scale(1 1) rotate(0) translate(0 697.0986)">
<title>gocallvis</title>
<polygon fill="#d3d3d3" stroke="transparent" points="0,0 0,-697.0986 1166.1993,-697.0986 1166.1993,0 0,0"/>
<text text-anchor="middle" x="113.4478" y="-8.8986" font-family="Arial" font-size="14.00" fill="#000000">github.com/tfbrother/bigcache/test</text>
<g id="clust1" class="cluster">
<title>cluster_focus</title>
<polygon fill="#e6ecfa" stroke="#000000" stroke-width=".5" points="8,-32.0986 8,-689.0986 1158.1993,-689.0986 1158.1993,-32.0986 8,-32.0986"/>
<text text-anchor="middle" x="583.0997" y="-670.6986" font-family="Arial" font-size="18.00" fill="#000000">bigcache</text>
</g>
<g id="clust2" class="cluster">
<title>cluster_github.com/tfbrother/bigcache/test</title>
<g id="a_clust2"><a xlink:href="/?f=github.com/tfbrother/bigcache/test" xlink:title="package: github.com/tfbrother/bigcache/test">
<polygon fill="#ffffe0" stroke="#000000" stroke-width=".8" points="16,-215.0986 16,-291.0986 86,-291.0986 86,-215.0986 16,-215.0986"/>
<text text-anchor="middle" x="51" y="-274.2986" font-family="bold" font-size="16.00" fill="#000000">[main]</text>
</a>
</g>
</g>
<!-- (*github.com/tfbrother/bigcache.BigCache).onEvict -->
<g id="node1" class="node">
<title>(*github.com/tfbrother/bigcache.BigCache).onEvict</title>
<ellipse fill="#add8e6" stroke="#000000" stroke-width=".5" cx="457.8572" cy="-451.0986" rx="85.4973" ry="18"/>
<text text-anchor="middle" x="457.8572" y="-448.406" font-family="Verdana" font-size="14.00" fill="#000000">(*BigCache).onEvict</text>
</g>
<!-- github.com/tfbrother/bigcache.readTimestampFromEntry -->
<g id="node2" class="node">
<title>github.com/tfbrother/bigcache.readTimestampFromEntry</title>
<ellipse fill="#add8e6" stroke="#000000" stroke-width=".5" cx="766.4005" cy="-468.0986" rx="108.2947" ry="18"/>
<text text-anchor="middle" x="766.4005" y="-465.406" font-family="Verdana" font-size="14.00" fill="#000000">readTimestampFromEntry</text>
</g>
<!-- (*github.com/tfbrother/bigcache.BigCache).onEvict&#45;&gt;github.com/tfbrother/bigcache.readTimestampFromEntry -->
<g id="edge1" class="edge">
<title>(*github.com/tfbrother/bigcache.BigCache).onEvict&#45;&gt;github.com/tfbrother/bigcache.readTimestampFromEntry</title>
<path fill="none" stroke="#000000" d="M540.947,-455.6767C575.3715,-457.5734 615.8525,-459.8038 652.9422,-461.8474"/>
<polygon fill="#000000" stroke="#000000" points="653.1282,-465.3628 663.3057,-462.4184 653.5134,-458.3734 653.1282,-465.3628"/>
</g>
<!-- (*github.com/tfbrother/bigcache.cacheShard).removeOldestEntry -->
<g id="node3" class="node">
<title>(*github.com/tfbrother/bigcache.cacheShard).removeOldestEntry</title>
<ellipse fill="#add8e6" stroke="#000000" stroke-width=".5" cx="766.4005" cy="-407.0986" rx="142.8744" ry="18"/>
<text text-anchor="middle" x="766.4005" y="-404.406" font-family="Verdana" font-size="14.00" fill="#000000">(*cacheShard).removeOldestEntry</text>
</g>
<!-- (*github.com/tfbrother/bigcache.BigCache).onEvict&#45;&gt;(*github.com/tfbrother/bigcache.cacheShard).removeOldestEntry -->
<g id="edge3" class="edge">
<title>(*github.com/tfbrother/bigcache.BigCache).onEvict&#45;&gt;(*github.com/tfbrother/bigcache.cacheShard).removeOldestEntry</title>
<path fill="none" stroke="#000000" stroke-dasharray="5,2" d="M529.0307,-440.9489C568.3265,-435.3451 617.875,-428.2792 661.5252,-422.0544"/>
<polygon fill="#000000" stroke="#000000" points="662.2049,-425.493 671.6106,-420.6162 661.2166,-418.5631 662.2049,-425.493"/>
</g>
<!-- github.com/tfbrother/bigcache.readHashFromEntry -->
<g id="node4" class="node">
<title>github.com/tfbrother/bigcache.readHashFromEntry</title>
<ellipse fill="#add8e6" stroke="#000000" stroke-width=".5" cx="1066.1435" cy="-407.0986" rx="84.1118" ry="18"/>
<text text-anchor="middle" x="1066.1435" y="-404.406" font-family="Verdana" font-size="14.00" fill="#000000">readHashFromEntry</text>
</g>
<!-- (*github.com/tfbrother/bigcache.cacheShard).removeOldestEntry&#45;&gt;github.com/tfbrother/bigcache.readHashFromEntry -->
<g id="edge2" class="edge">
<title>(*github.com/tfbrother/bigcache.cacheShard).removeOldestEntry&#45;&gt;github.com/tfbrother/bigcache.readHashFromEntry</title>
<path fill="none" stroke="#000000" d="M909.249,-407.0986C930.4355,-407.0986 951.8096,-407.0986 971.6727,-407.0986"/>
<polygon fill="#000000" stroke="#000000" points="971.9131,-410.5987 981.913,-407.0986 971.913,-403.5987 971.9131,-410.5987"/>
</g>
<!-- github.com/tfbrother/bigcache.newBigCache -->
<g id="node5" class="node">
<title>github.com/tfbrother/bigcache.newBigCache</title>
<ellipse fill="#add8e6" stroke="#000000" stroke-width=".5" cx="457.8572" cy="-58.0986" rx="57.6704" ry="18"/>
<text text-anchor="middle" x="457.8572" y="-55.406" font-family="Verdana" font-size="14.00" fill="#000000">newBigCache</text>
</g>
<!-- github.com/tfbrother/bigcache.isPowerOfTwo -->
<g id="node6" class="node">
<title>github.com/tfbrother/bigcache.isPowerOfTwo</title>
<ellipse fill="#add8e6" stroke="#000000" stroke-width=".5" cx="766.4005" cy="-119.0986" rx="59.262" ry="18"/>
<text text-anchor="middle" x="766.4005" y="-116.406" font-family="Verdana" font-size="14.00" fill="#000000">isPowerOfTwo</text>
</g>
<!-- github.com/tfbrother/bigcache.newBigCache&#45;&gt;github.com/tfbrother/bigcache.isPowerOfTwo -->
<g id="edge4" class="edge">
<title>github.com/tfbrother/bigcache.newBigCache&#45;&gt;github.com/tfbrother/bigcache.isPowerOfTwo</title>
<path fill="none" stroke="#000000" d="M506.7468,-67.7643C560.8477,-78.4602 648.0693,-95.7042 706.2996,-107.2165"/>
<polygon fill="#000000" stroke="#000000" points="705.9723,-110.7195 716.4613,-109.2255 707.33,-103.8524 705.9723,-110.7195"/>
</g>
<!-- github.com/tfbrother/bigcache.newDefaultHasher -->
<g id="node7" class="node">
<title>github.com/tfbrother/bigcache.newDefaultHasher</title>
<ellipse fill="#add8e6" stroke="#000000" stroke-width=".5" cx="766.4005" cy="-180.0986" rx="77.6499" ry="18"/>
<text text-anchor="middle" x="766.4005" y="-177.406" font-family="Verdana" font-size="14.00" fill="#000000">newDefaultHasher</text>
</g>
<!-- github.com/tfbrother/bigcache.newBigCache&#45;&gt;github.com/tfbrother/bigcache.newDefaultHasher -->
<g id="edge5" class="edge">
<title>github.com/tfbrother/bigcache.newBigCache&#45;&gt;github.com/tfbrother/bigcache.newDefaultHasher</title>
<path fill="none" stroke="#000000" d="M502.7448,-69.3747C518.4587,-74.272 535.8736,-80.8144 550.7134,-89.0986 587.6312,-109.7077 585.6724,-131.6449 623.7134,-150.0986 643.08,-159.4934 665.3237,-165.9569 686.3965,-170.4"/>
<polygon fill="#000000" stroke="#000000" points="685.8148,-173.8527 696.3043,-172.3626 687.175,-166.9861 685.8148,-173.8527"/>
</g>
<!-- github.com/tfbrother/bigcache.convertMBToBytes -->
<g id="node8" class="node">
<title>github.com/tfbrother/bigcache.convertMBToBytes</title>
<ellipse fill="#add8e6" stroke="#000000" stroke-width=".5" cx="766.4005" cy="-241.0986" rx="77.4912" ry="18"/>
<text text-anchor="middle" x="766.4005" y="-238.406" font-family="Verdana" font-size="14.00" fill="#000000">convertMBToBytes</text>
</g>
<!-- github.com/tfbrother/bigcache.newBigCache&#45;&gt;github.com/tfbrother/bigcache.convertMBToBytes -->
<g id="edge6" class="edge">
<title>github.com/tfbrother/bigcache.newBigCache&#45;&gt;github.com/tfbrother/bigcache.convertMBToBytes</title>
<path fill="none" stroke="#000000" d="M507.388,-67.6073C522.4325,-72.254 538.26,-79.0917 550.7134,-89.0986 599.9694,-128.6781 572.2645,-174.4148 623.7134,-211.0986 640.4518,-223.0333 660.9296,-230.415 681.0899,-234.9313"/>
<polygon fill="#000000" stroke="#000000" points="680.4479,-238.3722 690.9435,-236.9256 681.8366,-231.5113 680.4479,-238.3722"/>
</g>
<!-- github.com/tfbrother/bigcache.max -->
<g id="node9" class="node">
<title>github.com/tfbrother/bigcache.max</title>
<ellipse fill="#add8e6" stroke="#000000" stroke-width=".5" cx="766.4005" cy="-58.0986" rx="27" ry="18"/>
<text text-anchor="middle" x="766.4005" y="-55.406" font-family="Verdana" font-size="14.00" fill="#000000">max</text>
</g>
<!-- github.com/tfbrother/bigcache.newBigCache&#45;&gt;github.com/tfbrother/bigcache.max -->
<g id="edge7" class="edge">
<title>github.com/tfbrother/bigcache.newBigCache&#45;&gt;github.com/tfbrother/bigcache.max</title>
<path fill="none" stroke="#000000" d="M515.5299,-58.0986C578.0275,-58.0986 675.9173,-58.0986 729.0528,-58.0986"/>
<polygon fill="#000000" stroke="#000000" points="729.3714,-61.5987 739.3714,-58.0986 729.3714,-54.5987 729.3714,-61.5987"/>
</g>
<!-- github.com/tfbrother/bigcache.NewBigCache -->
<g id="node10" class="node">
<title>github.com/tfbrother/bigcache.NewBigCache</title>
<ellipse fill="#add8e6" stroke="#000000" stroke-width="1.5" cx="221.5005" cy="-119.0986" rx="58.5009" ry="18"/>
<text text-anchor="middle" x="221.5005" y="-116.406" font-family="Verdana" font-size="14.00" fill="#000000">NewBigCache</text>
</g>
<!-- github.com/tfbrother/bigcache.NewBigCache&#45;&gt;github.com/tfbrother/bigcache.newBigCache -->
<g id="edge8" class="edge">
<title>github.com/tfbrother/bigcache.NewBigCache&#45;&gt;github.com/tfbrother/bigcache.newBigCache</title>
<path fill="none" stroke="#000000" d="M266.5138,-107.4814C305.4908,-97.4221 361.9736,-82.8447 403.4713,-72.1348"/>
<polygon fill="#000000" stroke="#000000" points="404.6042,-75.4572 413.4123,-69.5692 402.8549,-68.6793 404.6042,-75.4572"/>
</g>
<!-- (*github.com/tfbrother/bigcache.BigCache).Get -->
<g id="node11" class="node">
<title>(*github.com/tfbrother/bigcache.BigCache).Get</title>
<ellipse fill="#add8e6" stroke="#000000" stroke-width="1.5" cx="221.5005" cy="-241.0986" rx="70.5011" ry="18"/>
<text text-anchor="middle" x="221.5005" y="-238.406" font-family="Verdana" font-size="14.00" fill="#000000">(*BigCache).Get</text>
</g>
<!-- (*github.com/tfbrother/bigcache.BigCache).getShard -->
<g id="node12" class="node">
<title>(*github.com/tfbrother/bigcache.BigCache).getShard</title>
<ellipse fill="#add8e6" stroke="#000000" stroke-width=".5" cx="457.8572" cy="-363.0986" rx="92.7126" ry="18"/>
<text text-anchor="middle" x="457.8572" y="-360.406" font-family="Verdana" font-size="14.00" fill="#000000">(*BigCache).getShard</text>
</g>
<!-- (*github.com/tfbrother/bigcache.BigCache).Get&#45;&gt;(*github.com/tfbrother/bigcache.BigCache).getShard -->
<g id="edge9" class="edge">
<title>(*github.com/tfbrother/bigcache.BigCache).Get&#45;&gt;(*github.com/tfbrother/bigcache.BigCache).getShard</title>
<path fill="none" stroke="#000000" d="M244.2875,-258.3516C271.7259,-278.4854 319.7792,-311.7373 365.0011,-333.0986 374.2878,-337.4854 384.3836,-341.4769 394.3844,-345.0143"/>
<polygon fill="#000000" stroke="#000000" points="393.3197,-348.3491 403.9142,-348.2648 395.5796,-341.7239 393.3197,-348.3491"/>
</g>
<!-- github.com/tfbrother/bigcache.notFound -->
<g id="node13" class="node">
<title>github.com/tfbrother/bigcache.notFound</title>
<ellipse fill="#add8e6" stroke="#000000" stroke-width=".5" cx="457.8572" cy="-180.0986" rx="41.922" ry="18"/>
<text text-anchor="middle" x="457.8572" y="-177.406" font-family="Verdana" font-size="14.00" fill="#000000">notFound</text>
</g>
<!-- (*github.com/tfbrother/bigcache.BigCache).Get&#45;&gt;github.com/tfbrother/bigcache.notFound -->
<g id="edge10" class="edge">
<title>(*github.com/tfbrother/bigcache.BigCache).Get&#45;&gt;github.com/tfbrother/bigcache.notFound</title>
<path fill="none" stroke="#000000" d="M271.3369,-228.2366C312.9143,-217.5062 371.6869,-202.3378 412.0881,-191.9109"/>
<polygon fill="#000000" stroke="#000000" points="413.1341,-195.2557 421.9422,-189.3678 411.3848,-188.4778 413.1341,-195.2557"/>
</g>
<!-- github.com/tfbrother/bigcache.readKeyFromEntry -->
<g id="node14" class="node">
<title>github.com/tfbrother/bigcache.readKeyFromEntry</title>
<ellipse fill="#add8e6" stroke="#000000" stroke-width=".5" cx="457.8572" cy="-241.0986" rx="78.6325" ry="18"/>
<text text-anchor="middle" x="457.8572" y="-238.406" font-family="Verdana" font-size="14.00" fill="#000000">readKeyFromEntry</text>
</g>
<!-- (*github.com/tfbrother/bigcache.BigCache).Get&#45;&gt;github.com/tfbrother/bigcache.readKeyFromEntry -->
<g id="edge11" class="edge">
<title>(*github.com/tfbrother/bigcache.BigCache).Get&#45;&gt;github.com/tfbrother/bigcache.readKeyFromEntry</title>
<path fill="none" stroke="#000000" d="M292.0952,-241.0986C316.1259,-241.0986 343.3079,-241.0986 368.6056,-241.0986"/>
<polygon fill="#000000" stroke="#000000" points="368.9415,-244.5987 378.9415,-241.0986 368.9414,-237.5987 368.9415,-244.5987"/>
</g>
<!-- github.com/tfbrother/bigcache.readEntry -->
<g id="node15" class="node">
<title>github.com/tfbrother/bigcache.readEntry</title>
<ellipse fill="#add8e6" stroke="#000000" stroke-width=".5" cx="457.8572" cy="-119.0986" rx="43.7999" ry="18"/>
<text text-anchor="middle" x="457.8572" y="-116.406" font-family="Verdana" font-size="14.00" fill="#000000">readEntry</text>
</g>
<!-- (*github.com/tfbrother/bigcache.BigCache).Get&#45;&gt;github.com/tfbrother/bigcache.readEntry -->
<g id="edge12" class="edge">
<title>(*github.com/tfbrother/bigcache.BigCache).Get&#45;&gt;github.com/tfbrother/bigcache.readEntry</title>
<path fill="none" stroke="#000000" d="M244.8449,-223.7742C272.4267,-203.9154 320.2391,-171.3733 365.0011,-150.0986 379.7334,-143.0965 396.4707,-136.9875 411.6389,-132.0861"/>
<polygon fill="#000000" stroke="#000000" points="412.849,-135.3747 421.3432,-129.0422 410.754,-128.6956 412.849,-135.3747"/>
</g>
<!-- (github.com/tfbrother/bigcache.fnv64a).Sum64 -->
<g id="node16" class="node">
<title>(github.com/tfbrother/bigcache.fnv64a).Sum64</title>
<ellipse fill="#add8e6" stroke="#000000" stroke-width="1.5" cx="457.8572" cy="-302.0986" rx="70.4744" ry="18"/>
<text text-anchor="middle" x="457.8572" y="-299.406" font-family="Verdana" font-size="14.00" fill="#000000">(fnv64a).Sum64</text>
</g>
<!-- (*github.com/tfbrother/bigcache.BigCache).Get&#45;&gt;(github.com/tfbrother/bigcache.fnv64a).Sum64 -->
<g id="edge13" class="edge">
<title>(*github.com/tfbrother/bigcache.BigCache).Get&#45;&gt;(github.com/tfbrother/bigcache.fnv64a).Sum64</title>
<path fill="none" stroke="#000000" stroke-dasharray="5,2" d="M271.3369,-253.9606C308.4195,-263.5311 359.1803,-276.6317 398.3858,-286.75"/>
<polygon fill="#000000" stroke="#000000" points="397.5316,-290.1442 408.089,-289.2542 399.281,-283.3662 397.5316,-290.1442"/>
</g>
<!-- (*github.com/tfbrother/bigcache.BigCache).Set -->
<g id="node17" class="node">
<title>(*github.com/tfbrother/bigcache.BigCache).Set</title>
<ellipse fill="#add8e6" stroke="#000000" stroke-width="1.5" cx="221.5005" cy="-424.0986" rx="69.5435" ry="18"/>
<text text-anchor="middle" x="221.5005" y="-421.406" font-family="Verdana" font-size="14.00" fill="#000000">(*BigCache).Set</text>
</g>
<!-- (*github.com/tfbrother/bigcache.BigCache).Set&#45;&gt;(*github.com/tfbrother/bigcache.BigCache).onEvict -->
<g id="edge17" class="edge">
<title>(*github.com/tfbrother/bigcache.BigCache).Set&#45;&gt;(*github.com/tfbrother/bigcache.BigCache).onEvict</title>
<path fill="none" stroke="#000000" d="M285.4621,-431.4052C312.2448,-434.4647 343.7708,-438.0661 372.4893,-441.3467"/>
<polygon fill="#000000" stroke="#000000" points="372.1853,-444.8347 382.5179,-442.4923 372.9798,-437.8799 372.1853,-444.8347"/>
</g>
<!-- (*github.com/tfbrother/bigcache.BigCache).Set&#45;&gt;(*github.com/tfbrother/bigcache.cacheShard).removeOldestEntry -->
<g id="edge19" class="edge">
<title>(*github.com/tfbrother/bigcache.BigCache).Set&#45;&gt;(*github.com/tfbrother/bigcache.cacheShard).removeOldestEntry</title>
<path fill="none" stroke="#000000" d="M290.789,-421.9369C372.6372,-419.3834 511.1186,-415.063 617.6087,-411.7407"/>
<polygon fill="#000000" stroke="#000000" points="617.9254,-415.2326 627.8114,-411.4224 617.7071,-408.236 617.9254,-415.2326"/>
</g>
<!-- (*github.com/tfbrother/bigcache.BigCache).Set&#45;&gt;(*github.com/tfbrother/bigcache.BigCache).getShard -->
<g id="edge15" class="edge">
<title>(*github.com/tfbrother/bigcache.BigCache).Set&#45;&gt;(*github.com/tfbrother/bigcache.BigCache).getShard</title>
<path fill="none" stroke="#000000" d="M271.0486,-411.311C306.0904,-402.2673 353.4521,-390.044 391.718,-380.1681"/>
<polygon fill="#000000" stroke="#000000" points="392.9353,-383.4687 401.7433,-377.5808 391.1859,-376.6908 392.9353,-383.4687"/>
</g>
<!-- (*github.com/tfbrother/bigcache.BigCache).Set&#45;&gt;(github.com/tfbrother/bigcache.fnv64a).Sum64 -->
<g id="edge20" class="edge">
<title>(*github.com/tfbrother/bigcache.BigCache).Set&#45;&gt;(github.com/tfbrother/bigcache.fnv64a).Sum64</title>
<path fill="none" stroke="#000000" stroke-dasharray="5,2" d="M244.8449,-406.7742C272.4267,-386.9154 320.2391,-354.3733 365.0011,-333.0986 376.2653,-327.7449 388.7016,-322.9132 400.7125,-318.7443"/>
<polygon fill="#000000" stroke="#000000" points="401.8607,-322.0508 410.2233,-315.5456 399.6292,-315.416 401.8607,-322.0508"/>
</g>
<!-- github.com/tfbrother/bigcache.resetKeyFromEntry -->
<g id="node18" class="node">
<title>github.com/tfbrother/bigcache.resetKeyFromEntry</title>
<ellipse fill="#add8e6" stroke="#000000" stroke-width=".5" cx="457.8572" cy="-512.0986" rx="81.1933" ry="18"/>
<text text-anchor="middle" x="457.8572" y="-509.406" font-family="Verdana" font-size="14.00" fill="#000000">resetKeyFromEntry</text>
</g>
<!-- (*github.com/tfbrother/bigcache.BigCache).Set&#45;&gt;github.com/tfbrother/bigcache.resetKeyFromEntry -->
<g id="edge16" class="edge">
<title>(*github.com/tfbrother/bigcache.BigCache).Set&#45;&gt;github.com/tfbrother/bigcache.resetKeyFromEntry</title>
<path fill="none" stroke="#000000" d="M257.7901,-439.6052C286.636,-451.7268 328.1247,-468.7087 365.0011,-482.0986 376.4465,-486.2545 388.7846,-490.4416 400.612,-494.3147"/>
<polygon fill="#000000" stroke="#000000" points="399.804,-497.7321 410.396,-497.4868 401.9629,-491.0733 399.804,-497.7321"/>
</g>
<!-- github.com/tfbrother/bigcache.wrapEntry -->
<g id="node19" class="node">
<title>github.com/tfbrother/bigcache.wrapEntry</title>
<ellipse fill="#add8e6" stroke="#000000" stroke-width=".5" cx="457.8572" cy="-573.0986" rx="45.0584" ry="18"/>
<text text-anchor="middle" x="457.8572" y="-570.406" font-family="Verdana" font-size="14.00" fill="#000000">wrapEntry</text>
</g>
<!-- (*github.com/tfbrother/bigcache.BigCache).Set&#45;&gt;github.com/tfbrother/bigcache.wrapEntry -->
<g id="edge18" class="edge">
<title>(*github.com/tfbrother/bigcache.BigCache).Set&#45;&gt;github.com/tfbrother/bigcache.wrapEntry</title>
<path fill="none" stroke="#000000" d="M238.4334,-441.9181C263.741,-467.6102 313.9432,-515.0454 365.0011,-543.0986 378.5125,-550.5224 394.1513,-556.4591 408.6977,-561.0278"/>
<polygon fill="#000000" stroke="#000000" points="407.9707,-564.4635 418.5543,-563.9737 409.9753,-557.7566 407.9707,-564.4635"/>
</g>
<!-- (github.com/tfbrother/bigcache.systemClock).epoch -->
<g id="node20" class="node">
<title>(github.com/tfbrother/bigcache.systemClock).epoch</title>
<ellipse fill="#add8e6" stroke="#000000" stroke-width=".5" cx="457.8572" cy="-634.0986" rx="88.021" ry="18"/>
<text text-anchor="middle" x="457.8572" y="-631.406" font-family="Verdana" font-size="14.00" fill="#000000">(systemClock).epoch</text>
</g>
<!-- (*github.com/tfbrother/bigcache.BigCache).Set&#45;&gt;(github.com/tfbrother/bigcache.systemClock).epoch -->
<g id="edge21" class="edge">
<title>(*github.com/tfbrother/bigcache.BigCache).Set&#45;&gt;(github.com/tfbrother/bigcache.systemClock).epoch</title>
<path fill="none" stroke="#000000" stroke-dasharray="5,2" d="M230.9896,-442.0593C250.9401,-478.1156 300.7424,-559.652 365.0011,-604.0986 372.2898,-609.1401 380.4771,-613.3739 388.8914,-616.9196"/>
<polygon fill="#000000" stroke="#000000" points="387.8634,-620.2751 398.452,-620.6368 390.4,-613.7509 387.8634,-620.2751"/>
</g>
<!-- github.com/tfbrother/bigcache/test.main -->
<g id="node21" class="node">
<title>github.com/tfbrother/bigcache/test.main</title>
<ellipse fill="#ffe4b5" stroke="#000000" stroke-width=".5" cx="51" cy="-241.0986" rx="27" ry="18"/>
<text text-anchor="middle" x="51" y="-238.406" font-family="Verdana" font-size="14.00" fill="#000000">main</text>
</g>
<!-- github.com/tfbrother/bigcache/test.main&#45;&gt;github.com/tfbrother/bigcache.NewBigCache -->
<g id="edge14" class="edge">
<title>github.com/tfbrother/bigcache/test.main&#45;&gt;github.com/tfbrother/bigcache.NewBigCache</title>
<path fill="none" stroke="#8b4513" d="M69.5711,-227.8103C98.4535,-207.1438 154.4833,-167.0522 189.8355,-141.7562"/>
<polygon fill="#8b4513" stroke="#8b4513" points="192.2529,-144.3302 198.3488,-135.6647 188.1795,-138.6375 192.2529,-144.3302"/>
</g>
<!-- github.com/tfbrother/bigcache/test.main&#45;&gt;(*github.com/tfbrother/bigcache.BigCache).Get -->
<g id="edge23" class="edge">
<title>github.com/tfbrother/bigcache/test.main&#45;&gt;(*github.com/tfbrother/bigcache.BigCache).Get</title>
<path fill="none" stroke="#8b4513" d="M78.0163,-241.0986C95.1115,-241.0986 118.1912,-241.0986 140.838,-241.0986"/>
<polygon fill="#8b4513" stroke="#8b4513" points="140.8427,-244.5987 150.8427,-241.0986 140.8427,-237.5987 140.8427,-244.5987"/>
</g>
<!-- github.com/tfbrother/bigcache/test.main&#45;&gt;(*github.com/tfbrother/bigcache.BigCache).Set -->
<g id="edge22" class="edge">
<title>github.com/tfbrother/bigcache/test.main&#45;&gt;(*github.com/tfbrother/bigcache.BigCache).Set</title>
<path fill="none" stroke="#8b4513" d="M65.5368,-256.7011C95.0086,-288.3335 162.0326,-360.2711 197.868,-398.7335"/>
<polygon fill="#8b4513" stroke="#8b4513" points="195.6391,-401.4757 205.0167,-406.4064 200.7607,-396.7039 195.6391,-401.4757"/>
</g>
</g>
</svg>
